# MagicaVoxel @ Ephtracy

# group
o 

# material
mtllib gold_piece.mtl
usemtl palette

# normals
vn -1 0 0
vn 1 0 0
vn 0 0 1
vn 0 0 -1
vn 0 -1 0
vn 0 1 0

# texcoords
vt 0.0410156 0.5
vt 0.0449219 0.5
vt 0.0683594 0.5

# verts
v -0.1 0 0
v -0.1 0 -0.1
v -0.1 0.1 0
v -0.1 0.1 -0.1
v -0.1 0.2 0
v -0.1 0.2 -0.1
v 0 0 0.1
v 0 0 0
v 0 0.1 0.1
v 0 0.1 0
v 0 0.2 0.1
v 0 0.2 0
v 0 0.2 -0.1
v 0 0.3 0
v 0 0.3 -0.1
v 0.1 0 0.1
v 0.1 0 0
v 0.1 0 -0.1
v 0.1 0.1 0.1
v 0.1 0.1 0
v 0.1 0.1 -0.1
v 0.2 0.1 0.1
v 0.2 0.1 0
v 0.2 0.1 -0.1
v 0.2 0.2 0.1
v 0.2 0.2 0
v 0.2 0.3 0
v 0.2 0.3 -0.1
v 0 0 0.1
v 0 0.1 0.1
v 0 0.2 0.1
v 0.1 0 0.1
v 0.1 0.1 0.1
v 0.1 0.2 0.1
v 0.2 0.1 0.1
v 0.2 0.2 0.1
v -0.1 0 0
v -0.1 0.1 0
v -0.1 0.2 0
v 0 0 0
v 0 0.1 0
v 0 0.2 0
v 0 0.3 0
v 0.1 0.2 0
v 0.1 0.3 0
v 0.2 0.2 0
v 0.2 0.3 0
v -0.1 0 -0.1
v -0.1 0.1 -0.1
v -0.1 0.2 -0.1
v 0 0.1 -0.1
v 0 0.2 -0.1
v 0 0.3 -0.1
v 0.1 0 -0.1
v 0.1 0.1 -0.1
v 0.1 0.2 -0.1
v 0.1 0.3 -0.1
v 0.2 0.1 -0.1
v 0.2 0.3 -0.1
v 0 0 0.1
v 0.1 0 0.1
v -0.1 0 0
v 0 0 0
v 0.1 0 0
v -0.1 0 -0.1
v 0.1 0 -0.1
v 0.1 0.1 0.1
v 0.2 0.1 0.1
v 0.1 0.1 0
v 0.2 0.1 0
v 0.1 0.1 -0.1
v 0.2 0.1 -0.1
v 0 0.2 0.1
v 0.1 0.2 0.1
v 0.2 0.2 0.1
v -0.1 0.2 0
v 0 0.2 0
v 0.1 0.2 0
v 0.2 0.2 0
v -0.1 0.2 -0.1
v 0 0.2 -0.1
v 0 0.3 0
v 0.1 0.3 0
v 0.2 0.3 0
v 0 0.3 -0.1
v 0.1 0.3 -0.1
v 0.2 0.3 -0.1

# faces
f 3/1/1 2/1/1 1/1/1
f 4/1/1 2/1/1 3/1/1
f 5/2/1 4/2/1 3/2/1
f 6/2/1 4/2/1 5/2/1
f 9/3/1 8/3/1 7/3/1
f 10/3/1 8/3/1 9/3/1
f 11/2/1 10/2/1 9/2/1
f 12/2/1 10/2/1 11/2/1
f 14/1/1 13/1/1 12/1/1
f 15/1/1 13/1/1 14/1/1
f 16/3/2 17/3/2 19/3/2
f 17/1/2 18/1/2 20/1/2
f 19/3/2 17/3/2 20/3/2
f 20/1/2 18/1/2 21/1/2
f 22/3/2 23/3/2 25/3/2
f 23/2/2 24/2/2 26/2/2
f 25/3/2 23/3/2 26/3/2
f 26/2/2 24/2/2 27/2/2
f 27/2/2 24/2/2 28/2/2
f 32/3/3 30/3/3 29/3/3
f 33/2/3 31/2/3 30/2/3
f 33/3/3 30/3/3 32/3/3
f 34/2/3 31/2/3 33/2/3
f 35/3/3 34/3/3 33/3/3
f 36/3/3 34/3/3 35/3/3
f 40/1/3 38/1/3 37/1/3
f 41/2/3 39/2/3 38/2/3
f 41/1/3 38/1/3 40/1/3
f 42/2/3 39/2/3 41/2/3
f 44/1/3 43/1/3 42/1/3
f 45/1/3 43/1/3 44/1/3
f 46/2/3 45/2/3 44/2/3
f 47/2/3 45/2/3 46/2/3
f 48/1/4 49/1/4 51/1/4
f 49/2/4 50/2/4 51/2/4
f 51/2/4 50/2/4 52/2/4
f 48/1/4 51/1/4 54/1/4
f 51/3/4 52/3/4 55/3/4
f 54/1/4 51/1/4 55/1/4
f 52/1/4 53/1/4 56/1/4
f 55/3/4 52/3/4 56/3/4
f 56/1/4 53/1/4 57/1/4
f 55/2/4 56/2/4 58/2/4
f 56/2/4 57/2/4 58/2/4
f 58/2/4 57/2/4 59/2/4
f 63/3/5 61/3/5 60/3/5
f 64/3/5 61/3/5 63/3/5
f 65/1/5 63/1/5 62/1/5
f 65/1/5 64/1/5 63/1/5
f 66/1/5 64/1/5 65/1/5
f 69/3/5 68/3/5 67/3/5
f 70/3/5 68/3/5 69/3/5
f 71/2/5 70/2/5 69/2/5
f 72/2/5 70/2/5 71/2/5
f 73/2/6 74/2/6 77/2/6
f 74/3/6 75/3/6 78/3/6
f 77/2/6 74/2/6 78/2/6
f 78/3/6 75/3/6 79/3/6
f 76/2/6 77/2/6 80/2/6
f 80/2/6 77/2/6 81/2/6
f 82/1/6 83/1/6 85/1/6
f 83/2/6 84/2/6 86/2/6
f 85/1/6 83/1/6 86/1/6
f 86/2/6 84/2/6 87/2/6
