# MagicaVoxel @ Ephtracy

# group
o 

# material
mtllib room1_door_slab.mtl
usemtl palette

# normals
vn -1 0 0
vn 1 0 0
vn 0 0 1
vn 0 0 -1
vn 0 -1 0
vn 0 1 0

# texcoords
vt 0.775391 0.5
vt 0.982422 0.5
vt 0.986328 0.5
vt 0.990234 0.5

# verts
v -1.6 0 0.5
v -1.6 0 -0.5
v -1.6 0.8 0.5
v -1.6 0.8 -0.5
v -1.5 0.8 0.5
v -1.5 0.8 -0.5
v -1.5 1.4 0.5
v -1.5 1.4 -0.5
v -1.4 1.4 0.5
v -1.4 1.4 -0.5
v -1.4 1.9 0.5
v -1.4 1.9 -0.5
v -1.3 1.9 0.5
v -1.3 1.9 -0.5
v -1.3 2.5 0.5
v -1.3 2.5 -0.5
v -1.2 2.5 0.5
v -1.2 2.5 -0.5
v -1.2 3.1 0.5
v -1.2 3.1 -0.5
v 1.2 2.5 0.5
v 1.2 2.5 -0.5
v 1.2 3.1 0.5
v 1.2 3.1 -0.5
v 1.3 1.9 0.5
v 1.3 1.9 -0.5
v 1.3 2.5 0.5
v 1.3 2.5 -0.5
v 1.4 1.4 0.5
v 1.4 1.4 -0.5
v 1.4 1.9 0.5
v 1.4 1.9 -0.5
v 1.5 0.8 0.5
v 1.5 0.8 -0.5
v 1.5 1.4 0.5
v 1.5 1.4 -0.5
v 1.6 0 0.5
v 1.6 0 -0.5
v 1.6 0.8 0.5
v 1.6 0.8 -0.5
v -1.6 0 0.5
v -1.6 0.8 0.5
v -1.5 0.8 0.5
v -1.5 1.4 0.5
v -1.4 1.4 0.5
v -1.4 1.9 0.5
v -1.3 1.9 0.5
v -1.3 2.5 0.5
v -1.2 2.5 0.5
v -1.2 3.1 0.5
v 1.2 2.5 0.5
v 1.2 3.1 0.5
v 1.3 1.9 0.5
v 1.3 2.5 0.5
v 1.4 1.4 0.5
v 1.4 1.9 0.5
v 1.5 0.8 0.5
v 1.5 1.4 0.5
v 1.6 0 0.5
v 1.6 0.8 0.5
v -1.6 0 -0.5
v -1.6 0.8 -0.5
v -1.5 0.8 -0.5
v -1.5 1.4 -0.5
v -1.4 1.4 -0.5
v -1.4 1.9 -0.5
v -1.3 1.9 -0.5
v -1.3 2.5 -0.5
v -1.2 2.5 -0.5
v -1.2 3.1 -0.5
v -0.7 1.4 -0.5
v -0.7 1.7 -0.5
v -0.7 1.8 -0.5
v -0.7 2.1 -0.5
v -0.7 2.2 -0.5
v -0.6 1.4 -0.5
v -0.6 1.5 -0.5
v -0.6 1.7 -0.5
v -0.6 1.8 -0.5
v -0.6 2.1 -0.5
v -0.6 2.2 -0.5
v -0.6 2.4 -0.5
v -0.6 2.5 -0.5
v -0.5 1.3 -0.5
v -0.5 1.4 -0.5
v -0.5 1.5 -0.5
v -0.5 2.2 -0.5
v -0.5 2.4 -0.5
v -0.5 2.5 -0.5
v -0.4 1.4 -0.5
v -0.4 1.5 -0.5
v -0.3 1.2 -0.5
v -0.3 1.3 -0.5
v -0.3 1.4 -0.5
v -0.3 1.9 -0.5
v -0.3 2 -0.5
v -0.3 2.4 -0.5
v -0.3 2.5 -0.5
v -0.3 2.6 -0.5
v -0.2 1.1 -0.5
v -0.2 1.2 -0.5
v -0.2 1.3 -0.5
v -0.2 1.4 -0.5
v -0.2 1.7 -0.5
v -0.2 1.8 -0.5
v -0.2 2.5 -0.5
v -0.2 2.6 -0.5
v -0.2 2.7 -0.5
v -0.0999999 1.9 -0.5
v -0.0999999 2 -0.5
v 0.1 1.9 -0.5
v 0.1 2 -0.5
v 0.2 1.1 -0.5
v 0.2 1.2 -0.5
v 0.2 1.3 -0.5
v 0.2 1.4 -0.5
v 0.2 1.7 -0.5
v 0.2 1.8 -0.5
v 0.2 2.5 -0.5
v 0.2 2.6 -0.5
v 0.2 2.7 -0.5
v 0.3 1.2 -0.5
v 0.3 1.3 -0.5
v 0.3 1.4 -0.5
v 0.3 1.9 -0.5
v 0.3 2 -0.5
v 0.3 2.4 -0.5
v 0.3 2.5 -0.5
v 0.3 2.6 -0.5
v 0.4 1.4 -0.5
v 0.4 1.5 -0.5
v 0.5 1.3 -0.5
v 0.5 1.4 -0.5
v 0.5 1.5 -0.5
v 0.5 2.2 -0.5
v 0.5 2.4 -0.5
v 0.5 2.5 -0.5
v 0.6 1.4 -0.5
v 0.6 1.5 -0.5
v 0.6 1.7 -0.5
v 0.6 1.8 -0.5
v 0.6 2.1 -0.5
v 0.6 2.2 -0.5
v 0.6 2.4 -0.5
v 0.6 2.5 -0.5
v 0.7 1.4 -0.5
v 0.7 1.7 -0.5
v 0.7 1.8 -0.5
v 0.7 2.1 -0.5
v 0.7 2.2 -0.5
v 1.2 2.5 -0.5
v 1.2 3.1 -0.5
v 1.3 1.9 -0.5
v 1.3 2.5 -0.5
v 1.4 1.4 -0.5
v 1.4 1.9 -0.5
v 1.5 0.8 -0.5
v 1.5 1.4 -0.5
v 1.6 0 -0.5
v 1.6 0.8 -0.5
v -1.6 0 0.5
v 1.6 0 0.5
v -1.6 0 -0.5
v 1.6 0 -0.5
v -1.6 0.8 0.5
v -1.5 0.8 0.5
v 1.5 0.8 0.5
v 1.6 0.8 0.5
v -1.6 0.8 -0.5
v -1.5 0.8 -0.5
v 1.5 0.8 -0.5
v 1.6 0.8 -0.5
v -1.5 1.4 0.5
v -1.4 1.4 0.5
v 1.4 1.4 0.5
v 1.5 1.4 0.5
v -1.5 1.4 -0.5
v -1.4 1.4 -0.5
v 1.4 1.4 -0.5
v 1.5 1.4 -0.5
v -1.4 1.9 0.5
v -1.3 1.9 0.5
v 1.3 1.9 0.5
v 1.4 1.9 0.5
v -1.4 1.9 -0.5
v -1.3 1.9 -0.5
v 1.3 1.9 -0.5
v 1.4 1.9 -0.5
v -1.3 2.5 0.5
v -1.2 2.5 0.5
v 1.2 2.5 0.5
v 1.3 2.5 0.5
v -1.3 2.5 -0.5
v -1.2 2.5 -0.5
v 1.2 2.5 -0.5
v 1.3 2.5 -0.5
v -1.2 3.1 0.5
v 1.2 3.1 0.5
v -1.2 3.1 -0.5
v 1.2 3.1 -0.5

# faces
f 3/2/1 2/2/1 1/2/1
f 4/2/1 2/2/1 3/2/1
f 7/2/1 6/2/1 5/2/1
f 8/2/1 6/2/1 7/2/1
f 11/2/1 10/2/1 9/2/1
f 12/2/1 10/2/1 11/2/1
f 15/2/1 14/2/1 13/2/1
f 16/2/1 14/2/1 15/2/1
f 19/2/1 18/2/1 17/2/1
f 20/2/1 18/2/1 19/2/1
f 21/2/2 22/2/2 23/2/2
f 23/2/2 22/2/2 24/2/2
f 25/2/2 26/2/2 27/2/2
f 27/2/2 26/2/2 28/2/2
f 29/2/2 30/2/2 31/2/2
f 31/2/2 30/2/2 32/2/2
f 33/2/2 34/2/2 35/2/2
f 35/2/2 34/2/2 36/2/2
f 37/2/2 38/2/2 39/2/2
f 39/2/2 38/2/2 40/2/2
f 43/2/3 42/2/3 41/2/3
f 45/2/3 44/2/3 43/2/3
f 47/2/3 46/2/3 45/2/3
f 49/2/3 48/2/3 47/2/3
f 51/2/3 49/2/3 47/2/3
f 51/2/3 50/2/3 49/2/3
f 52/2/3 50/2/3 51/2/3
f 53/2/3 47/2/3 45/2/3
f 53/2/3 51/2/3 47/2/3
f 54/2/3 51/2/3 53/2/3
f 55/2/3 45/2/3 43/2/3
f 55/2/3 53/2/3 45/2/3
f 56/2/3 53/2/3 55/2/3
f 57/2/3 43/2/3 41/2/3
f 57/2/3 55/2/3 43/2/3
f 58/2/3 55/2/3 57/2/3
f 59/2/3 57/2/3 41/2/3
f 60/2/3 57/2/3 59/2/3
f 61/2/4 62/2/4 63/2/4
f 63/2/4 64/2/4 65/2/4
f 65/2/4 66/2/4 67/2/4
f 67/2/4 68/2/4 69/2/4
f 63/2/4 65/2/4 71/2/4
f 69/2/4 70/2/4 71/2/4
f 67/2/4 69/2/4 71/2/4
f 65/2/4 67/2/4 71/2/4
f 71/2/4 70/2/4 72/2/4
f 72/2/4 70/2/4 73/2/4
f 73/2/4 70/2/4 74/2/4
f 74/2/4 70/2/4 75/2/4
f 63/2/4 71/2/4 76/2/4
f 71/3/4 72/3/4 76/3/4
f 76/3/4 72/3/4 77/3/4
f 72/4/4 73/4/4 78/4/4
f 77/3/4 72/3/4 78/3/4
f 73/3/4 74/3/4 79/3/4
f 78/4/4 73/4/4 79/4/4
f 74/4/4 75/4/4 80/4/4
f 79/3/4 74/3/4 80/3/4
f 75/2/4 70/2/4 81/2/4
f 80/4/4 75/4/4 81/4/4
f 81/2/4 70/2/4 82/2/4
f 82/2/4 70/2/4 83/2/4
f 63/2/4 76/2/4 84/2/4
f 76/4/4 77/4/4 85/4/4
f 84/2/4 76/2/4 85/2/4
f 79/2/4 80/2/4 86/2/4
f 85/4/4 77/4/4 86/4/4
f 78/2/4 79/2/4 86/2/4
f 77/2/4 78/2/4 86/2/4
f 80/2/4 81/2/4 86/2/4
f 81/3/4 82/3/4 87/3/4
f 86/2/4 81/2/4 87/2/4
f 82/4/4 83/4/4 88/4/4
f 87/3/4 82/3/4 88/3/4
f 83/2/4 70/2/4 89/2/4
f 88/4/4 83/4/4 89/4/4
f 84/3/4 85/3/4 90/3/4
f 85/3/4 86/3/4 90/3/4
f 86/2/4 87/2/4 91/2/4
f 90/3/4 86/3/4 91/3/4
f 87/2/4 88/2/4 91/2/4
f 63/2/4 84/2/4 92/2/4
f 84/3/4 90/3/4 93/3/4
f 92/2/4 84/2/4 93/2/4
f 90/2/4 91/2/4 94/2/4
f 93/3/4 90/3/4 94/3/4
f 91/2/4 88/2/4 95/2/4
f 94/2/4 91/2/4 95/2/4
f 95/2/4 88/2/4 96/2/4
f 88/3/4 89/3/4 97/3/4
f 96/2/4 88/2/4 97/2/4
f 89/2/4 70/2/4 98/2/4
f 97/3/4 89/3/4 98/3/4
f 98/2/4 70/2/4 99/2/4
f 63/2/4 92/2/4 100/2/4
f 92/3/4 93/3/4 101/3/4
f 100/2/4 92/2/4 101/2/4
f 93/4/4 94/4/4 102/4/4
f 101/3/4 93/3/4 102/3/4
f 94/2/4 95/2/4 103/2/4
f 102/4/4 94/4/4 103/4/4
f 103/2/4 95/2/4 104/2/4
f 104/2/4 95/2/4 105/2/4
f 96/2/4 97/2/4 106/2/4
f 97/2/4 98/2/4 106/2/4
f 98/4/4 99/4/4 106/4/4
f 99/2/4 70/2/4 107/2/4
f 106/4/4 99/4/4 107/4/4
f 107/2/4 70/2/4 108/2/4
f 105/2/4 95/2/4 109/2/4
f 95/3/4 96/3/4 109/3/4
f 96/2/4 106/2/4 110/2/4
f 109/3/4 96/3/4 110/3/4
f 106/2/4 107/2/4 110/2/4
f 105/2/4 109/2/4 111/2/4
f 109/2/4 110/2/4 111/2/4
f 110/2/4 107/2/4 112/2/4
f 111/2/4 110/2/4 112/2/4
f 100/3/4 101/3/4 113/3/4
f 63/2/4 100/2/4 113/2/4
f 101/2/4 102/2/4 114/2/4
f 113/3/4 101/3/4 114/3/4
f 103/2/4 104/2/4 114/2/4
f 102/2/4 103/2/4 114/2/4
f 114/2/4 104/2/4 115/2/4
f 115/2/4 104/2/4 116/2/4
f 104/3/4 105/3/4 117/3/4
f 116/2/4 104/2/4 117/2/4
f 105/2/4 111/2/4 118/2/4
f 117/3/4 105/3/4 118/3/4
f 112/2/4 107/2/4 119/2/4
f 107/3/4 108/3/4 120/3/4
f 119/2/4 107/2/4 120/2/4
f 108/2/4 70/2/4 121/2/4
f 120/3/4 108/3/4 121/3/4
f 113/2/4 114/2/4 122/2/4
f 114/3/4 115/3/4 122/3/4
f 115/4/4 116/4/4 123/4/4
f 122/3/4 115/3/4 123/3/4
f 116/2/4 117/2/4 124/2/4
f 123/4/4 116/4/4 124/4/4
f 117/2/4 118/2/4 124/2/4
f 118/2/4 111/2/4 125/2/4
f 124/2/4 118/2/4 125/2/4
f 111/3/4 112/3/4 125/3/4
f 112/2/4 119/2/4 126/2/4
f 125/3/4 112/3/4 126/3/4
f 126/2/4 119/2/4 127/2/4
f 119/4/4 120/4/4 128/4/4
f 127/2/4 119/2/4 128/2/4
f 120/2/4 121/2/4 129/2/4
f 128/4/4 120/4/4 129/4/4
f 126/2/4 127/2/4 130/2/4
f 123/3/4 124/3/4 130/3/4
f 124/2/4 125/2/4 130/2/4
f 125/2/4 126/2/4 130/2/4
f 130/2/4 127/2/4 131/2/4
f 122/2/4 123/2/4 132/2/4
f 123/3/4 130/3/4 132/3/4
f 130/3/4 131/3/4 132/3/4
f 132/3/4 131/3/4 133/3/4
f 131/2/4 127/2/4 134/2/4
f 133/3/4 131/3/4 134/3/4
f 134/2/4 127/2/4 135/2/4
f 127/3/4 128/3/4 136/3/4
f 135/2/4 127/2/4 136/2/4
f 128/2/4 129/2/4 137/2/4
f 136/3/4 128/3/4 137/3/4
f 132/2/4 133/2/4 138/2/4
f 133/4/4 134/4/4 138/4/4
f 134/2/4 135/2/4 139/2/4
f 138/4/4 134/4/4 139/4/4
f 139/2/4 135/2/4 140/2/4
f 140/2/4 135/2/4 141/2/4
f 141/2/4 135/2/4 142/2/4
f 135/3/4 136/3/4 143/3/4
f 142/2/4 135/2/4 143/2/4
f 136/4/4 137/4/4 144/4/4
f 143/3/4 136/3/4 144/3/4
f 137/2/4 129/2/4 145/2/4
f 144/4/4 137/4/4 145/4/4
f 132/2/4 138/2/4 146/2/4
f 138/3/4 139/3/4 146/3/4
f 139/3/4 140/3/4 146/3/4
f 140/4/4 141/4/4 147/4/4
f 146/3/4 140/3/4 147/3/4
f 141/3/4 142/3/4 148/3/4
f 147/4/4 141/4/4 148/4/4
f 142/4/4 143/4/4 149/4/4
f 148/3/4 142/3/4 149/3/4
f 143/2/4 144/2/4 150/2/4
f 149/4/4 143/4/4 150/4/4
f 144/2/4 145/2/4 150/2/4
f 148/2/4 149/2/4 151/2/4
f 150/2/4 145/2/4 151/2/4
f 149/2/4 150/2/4 151/2/4
f 146/2/4 147/2/4 151/2/4
f 147/2/4 148/2/4 151/2/4
f 145/2/4 129/2/4 151/2/4
f 129/2/4 121/2/4 152/2/4
f 151/2/4 129/2/4 152/2/4
f 121/2/4 70/2/4 152/2/4
f 146/2/4 151/2/4 153/2/4
f 153/2/4 151/2/4 154/2/4
f 132/2/4 146/2/4 155/2/4
f 146/2/4 153/2/4 155/2/4
f 155/2/4 153/2/4 156/2/4
f 61/2/4 63/2/4 157/2/4
f 122/2/4 132/2/4 157/2/4
f 132/2/4 155/2/4 157/2/4
f 113/2/4 122/2/4 157/2/4
f 63/2/4 113/2/4 157/2/4
f 157/2/4 155/2/4 158/2/4
f 61/2/4 157/2/4 159/2/4
f 159/2/4 157/2/4 160/2/4
f 163/2/5 162/2/5 161/2/5
f 164/2/5 162/2/5 163/2/5
f 165/2/6 166/2/6 169/2/6
f 169/2/6 166/2/6 170/2/6
f 167/2/6 168/2/6 171/2/6
f 171/2/6 168/2/6 172/2/6
f 173/2/6 174/2/6 177/2/6
f 177/2/6 174/2/6 178/2/6
f 175/2/6 176/2/6 179/2/6
f 179/2/6 176/2/6 180/2/6
f 181/2/6 182/2/6 185/2/6
f 185/2/6 182/2/6 186/2/6
f 183/2/6 184/2/6 187/2/6
f 187/2/6 184/2/6 188/2/6
f 189/2/6 190/2/6 193/2/6
f 193/2/6 190/2/6 194/2/6
f 191/2/6 192/2/6 195/2/6
f 195/2/6 192/2/6 196/2/6
f 197/2/6 198/2/6 199/2/6
f 199/2/6 198/2/6 200/2/6
