# MagicaVoxel @ Ephtracy

# group
o 

# material
mtllib room2_wall_right.mtl
usemtl palette

# normals
vn -1 0 0
vn 1 0 0
vn 0 0 1
vn 0 0 -1
vn 0 -1 0
vn 0 1 0

# texcoords
vt 0.982422 0.5
vt 0.986328 0.5

# verts
v -1.5 0 7
v -1.5 0 -7
v -1.5 5 7
v -1.5 5 -7
v -0.7 1.9 1.5
v -0.7 1.9 -1.5
v -0.7 2 1.5
v -0.7 2 -1.5
v -0.8 1.9 1.5
v -0.8 1.9 -1.5
v -0.8 2 1.5
v -0.8 2 -1.5
v -0.4 0 3.7
v -0.4 0 1.5
v -0.4 0 1.1
v -0.4 0 -1.1
v -0.4 0 -1.5
v -0.4 0 -3.7
v -0.4 2.6 3.7
v -0.4 2.6 1.5
v -0.4 2.6 1.1
v -0.4 2.6 -1.1
v -0.4 2.6 -1.5
v -0.4 2.6 -3.7
v 1.5 0 7
v 1.5 0 3.8
v 1.5 0 3.7
v 1.5 0 1.5
v 1.5 0 1.4
v 1.5 0 1.2
v 1.5 0 1.1
v 1.5 0 -1.1
v 1.5 0 -1.2
v 1.5 0 -1.4
v 1.5 0 -1.5
v 1.5 0 -3.7
v 1.5 0 -3.8
v 1.5 0 -7
v 1.5 0.2 -3.9
v 1.5 0.2 -4
v 1.5 0.3 4
v 1.5 0.3 3.9
v 1.5 0.3 -5
v 1.5 0.3 -5.1
v 1.5 0.4 5.7
v 1.5 0.4 5.6
v 1.5 0.6 5
v 1.5 0.6 4
v 1.5 0.6 -4
v 1.5 0.6 -5
v 1.5 0.7 5
v 1.5 0.7 4.1
v 1.5 0.7 4
v 1.5 0.7 3.9
v 1.5 0.7 -3.9
v 1.5 0.7 -4
v 1.5 0.7 -4.1
v 1.5 0.7 -5
v 1.5 0.7 -5.1
v 1.5 0.7 -6
v 1.5 0.8 -5
v 1.5 0.8 -5.7
v 1.5 0.8 -5.8
v 1.5 0.8 -6
v 1.5 0.9 6.4
v 1.5 0.9 5.7
v 1.5 0.9 5.6
v 1.5 0.9 5.2
v 1.5 1 6.4
v 1.5 1 5.2
v 1.5 1 4.1
v 1.5 1 4
v 1.5 1 -4
v 1.5 1 -4.1
v 1.5 1 -6.6
v 1.5 1 -6.7
v 1.5 1.1 6.5
v 1.5 1.1 6.4
v 1.5 1.4 5.1
v 1.5 1.4 4.2
v 1.5 1.4 -4.2
v 1.5 1.4 -5
v 1.5 1.5 5
v 1.5 1.5 4.3
v 1.5 1.5 4.2
v 1.5 1.5 3.8
v 1.5 1.5 -3.8
v 1.5 1.5 -4.2
v 1.5 1.5 -4.3
v 1.5 1.5 -5
v 1.5 1.6 5.8
v 1.5 1.6 5.7
v 1.5 1.6 4.3
v 1.5 1.6 3.8
v 1.5 1.6 -3.8
v 1.5 1.6 -4.3
v 1.5 1.7 -4.7
v 1.5 1.7 -4.8
v 1.5 1.7 -5.7
v 1.5 1.7 -5.8
v 1.5 2 -4.6
v 1.5 2 -4.7
v 1.5 2 -4.8
v 1.5 2 -5.6
v 1.5 2 -6.1
v 1.5 2 -6.6
v 1.5 2 -6.7
v 1.5 2 -6.9
v 1.5 2.1 -4.7
v 1.5 2.1 -5.6
v 1.5 2.1 -6.2
v 1.5 2.1 -6.9
v 1.5 2.2 6.4
v 1.5 2.2 5.8
v 1.5 2.2 5
v 1.5 2.2 4.1
v 1.5 2.3 6.5
v 1.5 2.3 5.7
v 1.5 2.3 5.1
v 1.5 2.3 4.1
v 1.5 2.6 5.6
v 1.5 2.6 5.5
v 1.5 2.6 3.7
v 1.5 2.6 1.5
v 1.5 2.6 1.4
v 1.5 2.6 1.2
v 1.5 2.6 1.1
v 1.5 2.6 -1.1
v 1.5 2.6 -1.2
v 1.5 2.6 -1.4
v 1.5 2.6 -1.5
v 1.5 2.6 -3.7
v 1.5 2.7 3.8
v 1.5 2.7 -3.6
v 1.5 2.7 -3.8
v 1.5 2.7 -4.6
v 1.5 2.7 -5.4
v 1.5 2.7 -5.5
v 1.5 2.8 4.4
v 1.5 2.8 3.4
v 1.5 2.8 -3.6
v 1.5 2.8 -3.9
v 1.5 2.8 -4
v 1.5 2.8 -4.7
v 1.5 2.9 4.3
v 1.5 2.9 3.4
v 1.5 2.9 -2.6
v 1.5 2.9 -2.7
v 1.5 3.1 5.9
v 1.5 3.1 5.6
v 1.5 3.1 5.5
v 1.5 3.1 4.8
v 1.5 3.1 -5.5
v 1.5 3.1 -6.1
v 1.5 3.1 -6.2
v 1.5 3.1 -6.5
v 1.5 3.2 5.9
v 1.5 3.2 5.8
v 1.5 3.2 5.7
v 1.5 3.2 4.8
v 1.5 3.2 1.4
v 1.5 3.2 1.3
v 1.5 3.2 -1.3
v 1.5 3.2 -1.4
v 1.5 3.2 -5.5
v 1.5 3.2 -6.5
v 1.5 3.3 7
v 1.5 3.3 6.3
v 1.5 3.4 7
v 1.5 3.4 6.4
v 1.5 3.4 2.6
v 1.5 3.4 1.4
v 1.5 3.4 -1.4
v 1.5 3.4 -2.6
v 1.5 3.5 4.7
v 1.5 3.5 4.4
v 1.5 3.5 4.3
v 1.5 3.5 3.6
v 1.5 3.5 2.6
v 1.5 3.5 1.3
v 1.5 3.5 0.9
v 1.5 3.5 0.8
v 1.5 3.5 -0.1
v 1.5 3.5 -0.2
v 1.5 3.5 -1.3
v 1.5 3.5 -2.6
v 1.5 3.5 -2.7
v 1.5 3.5 -3.1
v 1.5 3.5 -3.6
v 1.5 3.5 -3.9
v 1.5 3.5 -4
v 1.5 3.5 -4.7
v 1.5 3.6 4.7
v 1.5 3.6 3.7
v 1.5 3.6 -2.6
v 1.5 3.6 -3.1
v 1.5 3.6 -3.7
v 1.5 3.6 -4.7
v 1.5 3.6 -5.4
v 1.5 3.6 -5.5
v 1.5 3.7 3
v 1.5 3.7 2.9
v 1.5 3.7 -1.8
v 1.5 3.7 -1.9
v 1.5 3.9 5.8
v 1.5 3.9 5.7
v 1.5 3.9 -3.7
v 1.5 3.9 -3.8
v 1.5 4 3.7
v 1.5 4 3.6
v 1.5 4 1.1
v 1.5 4 0.9
v 1.5 4 0.8
v 1.5 4 -0.1
v 1.5 4 -3.6
v 1.5 4 -3.7
v 1.5 4.1 4.8
v 1.5 4.1 4.7
v 1.5 4.1 2
v 1.5 4.1 1.9
v 1.5 4.1 1.1
v 1.5 4.1 -0.1
v 1.5 4.1 -0.2
v 1.5 4.1 -1.8
v 1.5 4.2 -0.2
v 1.5 4.2 -1.7
v 1.5 4.2 -1.8
v 1.5 4.2 -1.9
v 1.5 4.3 3.4
v 1.5 4.3 3
v 1.5 4.3 -5.2
v 1.5 4.3 -6.1
v 1.5 4.4 5.6
v 1.5 4.4 4.8
v 1.5 4.4 4.7
v 1.5 4.4 4.4
v 1.5 4.4 3.4
v 1.5 4.4 3
v 1.5 4.4 2.9
v 1.5 4.4 2
v 1.5 4.4 1.9
v 1.5 4.4 1.6
v 1.5 4.4 -1.8
v 1.5 4.4 -2.9
v 1.5 4.4 -4.6
v 1.5 4.4 -5.2
v 1.5 4.4 -5.4
v 1.5 4.4 -6.1
v 1.5 4.5 5.5
v 1.5 4.5 4.4
v 1.5 4.5 3
v 1.5 4.5 1.6
v 1.5 4.5 -1.7
v 1.5 4.5 -2.9
v 1.5 4.5 -4.6
v 1.5 4.5 -5.4
v 1.5 4.6 6.4
v 1.5 4.6 6.3
v 1.5 4.6 -0.1
v 1.5 4.6 -0.2
v 1.5 4.6 -3.7
v 1.5 4.6 -3.8
v 1.5 5 7
v 1.5 5 5.6
v 1.5 5 5.5
v 1.5 5 -7
v -1.5 0 7
v -1.5 5 7
v 1.4 3.3 7
v 1.4 3.4 7
v 1.5 0 7
v 1.5 3.3 7
v 1.5 3.4 7
v 1.5 5 7
v -0.4 0 1.5
v -0.4 2.6 1.5
v 1.3 0 1.5
v 1.3 2.6 1.5
v 1.4 2.6 1.5
v 1.5 0 1.5
v 1.5 2.6 1.5
v -0.4 0 -1.1
v -0.4 2.6 -1.1
v 1.4 0 -1.1
v 1.4 2.6 -1.1
v 1.5 0 -1.1
v 1.5 2.6 -1.1
v -0.8 1.9 -1.5
v -0.8 2 -1.5
v -0.7 1.9 -1.5
v -0.7 2 -1.5
v -0.4 0 -3.7
v -0.4 2.6 -3.7
v 1.4 0 -3.7
v 1.4 2.6 -3.7
v 1.5 0 -3.7
v 1.5 2.6 -3.7
v -0.4 0 3.7
v -0.4 2.6 3.7
v 1.3 0 3.7
v 1.3 2.6 3.7
v 1.4 2.6 3.7
v 1.5 0 3.7
v 1.5 2.6 3.7
v -0.8 1.9 1.5
v -0.8 2 1.5
v -0.7 1.9 1.5
v -0.7 2 1.5
v -0.4 0 1.1
v -0.4 2.6 1.1
v 1.4 0 1.1
v 1.4 2.6 1.1
v 1.5 0 1.1
v 1.5 2.6 1.1
v -0.4 0 -1.5
v -0.4 2.6 -1.5
v 1.4 0 -1.5
v 1.4 2.6 -1.5
v 1.5 0 -1.5
v 1.5 2.6 -1.5
v -1.5 0 -7
v -1.5 5 -7
v 1.5 0 -7
v 1.5 5 -7
v -1.5 0 7
v 1.5 0 7
v 1.3 0 3.8
v 1.5 0 3.8
v -0.4 0 3.7
v 1.3 0 3.7
v 1.5 0 3.7
v -0.4 0 1.5
v 1.3 0 1.5
v 1.5 0 1.5
v 1.3 0 1.4
v 1.5 0 1.4
v 1.4 0 1.2
v 1.5 0 1.2
v -0.4 0 1.1
v 1.4 0 1.1
v 1.5 0 1.1
v -0.4 0 -1.1
v 1.4 0 -1.1
v 1.5 0 -1.1
v 1.4 0 -1.2
v 1.5 0 -1.2
v 1.4 0 -1.4
v 1.5 0 -1.4
v -0.4 0 -1.5
v 1.4 0 -1.5
v 1.5 0 -1.5
v -0.4 0 -3.7
v 1.4 0 -3.7
v 1.5 0 -3.7
v 1.4 0 -3.8
v 1.5 0 -3.8
v -1.5 0 -7
v 1.5 0 -7
v -0.8 2 1.5
v -0.7 2 1.5
v -0.8 2 -1.5
v -0.7 2 -1.5
v -0.4 2.6 3.7
v 1.3 2.6 3.7
v 1.4 2.6 3.7
v 1.5 2.6 3.7
v -0.4 2.6 1.5
v 1.3 2.6 1.5
v 1.4 2.6 1.5
v 1.5 2.6 1.5
v -0.4 2.6 1.1
v 1.4 2.6 1.1
v 1.5 2.6 1.1
v -0.4 2.6 -1.1
v 1.4 2.6 -1.1
v 1.5 2.6 -1.1
v -0.4 2.6 -1.5
v 1.4 2.6 -1.5
v 1.5 2.6 -1.5
v -0.4 2.6 -3.7
v 1.4 2.6 -3.7
v 1.5 2.6 -3.7
v -0.8 1.9 1.5
v -0.7 1.9 1.5
v -0.8 1.9 -1.5
v -0.7 1.9 -1.5
v -1.5 5 7
v 1.5 5 7
v 1.4 5 5.6
v 1.5 5 5.6
v 1.4 5 5.5
v 1.5 5 5.5
v -1.5 5 -7
v 1.5 5 -7

# faces
f 3/1/1 2/1/1 1/1/1
f 4/1/1 2/1/1 3/1/1
f 7/1/1 6/1/1 5/1/1
f 8/1/1 6/1/1 7/1/1
f 9/1/2 10/1/2 11/1/2
f 11/1/2 10/1/2 12/1/2
f 13/1/2 14/1/2 19/1/2
f 19/1/2 14/1/2 20/1/2
f 15/1/2 16/1/2 21/1/2
f 21/1/2 16/1/2 22/1/2
f 17/1/2 18/1/2 23/1/2
f 23/1/2 18/1/2 24/1/2
f 37/1/2 38/1/2 39/1/2
f 39/1/2 38/1/2 40/1/2
f 25/1/2 26/1/2 41/1/2
f 41/1/2 26/1/2 42/1/2
f 40/1/2 38/1/2 43/1/2
f 43/1/2 38/1/2 44/1/2
f 25/1/2 41/1/2 45/1/2
f 45/1/2 41/1/2 46/1/2
f 46/1/2 41/1/2 47/1/2
f 41/2/2 42/2/2 48/2/2
f 47/1/2 41/1/2 48/1/2
f 39/2/2 40/2/2 49/2/2
f 40/1/2 43/1/2 49/1/2
f 43/2/2 44/2/2 50/2/2
f 49/1/2 43/1/2 50/1/2
f 46/1/2 47/1/2 51/1/2
f 47/2/2 48/2/2 51/2/2
f 51/2/2 48/2/2 52/2/2
f 48/2/2 42/2/2 53/2/2
f 52/2/2 48/2/2 53/2/2
f 42/1/2 26/1/2 54/1/2
f 53/2/2 42/2/2 54/2/2
f 37/1/2 39/1/2 55/1/2
f 49/2/2 50/2/2 55/2/2
f 39/2/2 49/2/2 55/2/2
f 55/2/2 50/2/2 56/2/2
f 56/2/2 50/2/2 57/2/2
f 50/2/2 44/2/2 58/2/2
f 57/2/2 50/2/2 58/2/2
f 44/1/2 38/1/2 59/1/2
f 58/2/2 44/2/2 59/2/2
f 59/1/2 38/1/2 60/1/2
f 57/1/2 58/1/2 61/1/2
f 58/2/2 59/2/2 61/2/2
f 59/2/2 60/2/2 61/2/2
f 61/2/2 60/2/2 62/2/2
f 62/2/2 60/2/2 63/2/2
f 60/1/2 38/1/2 64/1/2
f 63/2/2 60/2/2 64/2/2
f 25/1/2 45/1/2 65/1/2
f 45/2/2 46/2/2 66/2/2
f 65/1/2 45/1/2 66/1/2
f 51/1/2 52/1/2 67/1/2
f 66/2/2 46/2/2 67/2/2
f 46/1/2 51/1/2 67/1/2
f 67/1/2 52/1/2 68/1/2
f 65/2/2 66/2/2 69/2/2
f 25/1/2 65/1/2 69/1/2
f 67/2/2 68/2/2 69/2/2
f 66/2/2 67/2/2 69/2/2
f 68/1/2 52/1/2 70/1/2
f 69/2/2 68/2/2 70/2/2
f 52/2/2 53/2/2 71/2/2
f 70/1/2 52/1/2 71/1/2
f 53/1/2 54/1/2 72/1/2
f 71/2/2 53/2/2 72/2/2
f 56/2/2 57/2/2 73/2/2
f 55/1/2 56/1/2 73/1/2
f 61/1/2 62/1/2 74/1/2
f 73/2/2 57/2/2 74/2/2
f 57/1/2 61/1/2 74/1/2
f 63/1/2 64/1/2 75/1/2
f 64/1/2 38/1/2 75/1/2
f 75/1/2 38/1/2 76/1/2
f 69/1/2 70/1/2 77/1/2
f 25/1/2 69/1/2 77/1/2
f 70/1/2 71/1/2 77/1/2
f 71/1/2 72/1/2 77/1/2
f 77/1/2 72/1/2 78/1/2
f 78/1/2 72/1/2 79/1/2
f 79/1/2 72/1/2 80/1/2
f 74/1/2 62/1/2 81/1/2
f 73/1/2 74/1/2 81/1/2
f 81/1/2 62/1/2 82/1/2
f 79/2/2 80/2/2 83/2/2
f 83/2/2 80/2/2 84/2/2
f 80/1/2 72/1/2 85/1/2
f 84/2/2 80/2/2 85/2/2
f 26/2/2 27/2/2 86/2/2
f 85/1/2 72/1/2 86/1/2
f 54/1/2 26/1/2 86/1/2
f 72/1/2 54/1/2 86/1/2
f 36/2/2 37/2/2 87/2/2
f 55/1/2 73/1/2 87/1/2
f 37/1/2 55/1/2 87/1/2
f 73/1/2 81/1/2 87/1/2
f 81/2/2 82/2/2 88/2/2
f 87/1/2 81/1/2 88/1/2
f 88/2/2 82/2/2 89/2/2
f 82/1/2 62/1/2 90/1/2
f 89/2/2 82/2/2 90/2/2
f 78/1/2 79/1/2 91/1/2
f 91/1/2 79/1/2 92/1/2
f 84/2/2 85/2/2 93/2/2
f 83/1/2 84/1/2 93/1/2
f 85/2/2 86/2/2 93/2/2
f 86/2/2 27/2/2 94/2/2
f 93/2/2 86/2/2 94/2/2
f 36/2/2 87/2/2 95/2/2
f 88/2/2 89/2/2 95/2/2
f 87/2/2 88/2/2 95/2/2
f 89/1/2 90/1/2 96/1/2
f 95/2/2 89/2/2 96/2/2
f 95/1/2 96/1/2 97/1/2
f 96/1/2 90/1/2 97/1/2
f 97/1/2 90/1/2 98/1/2
f 62/2/2 63/2/2 99/2/2
f 98/1/2 90/1/2 99/1/2
f 90/1/2 62/1/2 99/1/2
f 63/1/2 75/1/2 100/1/2
f 99/2/2 63/2/2 100/2/2
f 95/1/2 97/1/2 101/1/2
f 97/2/2 98/2/2 102/2/2
f 101/1/2 97/1/2 102/1/2
f 98/1/2 99/1/2 103/1/2
f 102/2/2 98/2/2 103/2/2
f 99/1/2 100/1/2 103/1/2
f 103/1/2 100/1/2 104/1/2
f 100/1/2 75/1/2 105/1/2
f 104/1/2 100/1/2 105/1/2
f 75/2/2 76/2/2 106/2/2
f 105/1/2 75/1/2 106/1/2
f 76/1/2 38/1/2 107/1/2
f 106/2/2 76/2/2 107/2/2
f 107/1/2 38/1/2 108/1/2
f 101/2/2 102/2/2 109/2/2
f 103/2/2 104/2/2 109/2/2
f 102/2/2 103/2/2 109/2/2
f 104/1/2 105/1/2 110/1/2
f 109/2/2 104/2/2 110/2/2
f 105/2/2 106/2/2 111/2/2
f 107/2/2 108/2/2 111/2/2
f 106/2/2 107/2/2 111/2/2
f 108/1/2 38/1/2 112/1/2
f 111/2/2 108/2/2 112/2/2
f 78/1/2 91/1/2 113/1/2
f 77/2/2 78/2/2 113/2/2
f 91/2/2 92/2/2 114/2/2
f 113/1/2 91/1/2 114/1/2
f 83/1/2 93/1/2 115/1/2
f 79/2/2 83/2/2 115/2/2
f 93/1/2 94/1/2 115/1/2
f 115/1/2 94/1/2 116/1/2
f 113/2/2 114/2/2 117/2/2
f 77/2/2 113/2/2 117/2/2
f 25/1/2 77/1/2 117/1/2
f 92/1/2 79/1/2 118/1/2
f 117/2/2 114/2/2 118/2/2
f 114/2/2 92/2/2 118/2/2
f 115/2/2 116/2/2 119/2/2
f 118/1/2 79/1/2 119/1/2
f 79/2/2 115/2/2 119/2/2
f 116/1/2 94/1/2 120/1/2
f 119/2/2 116/2/2 120/2/2
f 118/1/2 119/1/2 121/1/2
f 117/1/2 118/1/2 121/1/2
f 119/1/2 120/1/2 121/1/2
f 121/1/2 120/1/2 122/1/2
f 94/2/2 27/2/2 123/2/2
f 28/2/2 29/2/2 124/2/2
f 29/1/2 30/1/2 125/1/2
f 124/2/2 29/2/2 125/2/2
f 30/2/2 31/2/2 126/2/2
f 125/1/2 30/1/2 126/1/2
f 126/2/2 31/2/2 127/2/2
f 32/2/2 33/2/2 128/2/2
f 33/1/2 34/1/2 129/1/2
f 128/2/2 33/2/2 129/2/2
f 34/2/2 35/2/2 130/2/2
f 129/1/2 34/1/2 130/1/2
f 130/2/2 35/2/2 131/2/2
f 36/2/2 95/2/2 132/2/2
f 94/2/2 123/2/2 133/2/2
f 131/2/2 132/2/2 133/2/2
f 123/2/2 124/2/2 133/2/2
f 124/2/2 125/2/2 133/2/2
f 129/2/2 130/2/2 133/2/2
f 126/2/2 127/2/2 133/2/2
f 125/2/2 126/2/2 133/2/2
f 127/2/2 128/2/2 133/2/2
f 128/2/2 129/2/2 133/2/2
f 120/1/2 94/1/2 133/1/2
f 122/1/2 120/1/2 133/1/2
f 130/2/2 131/2/2 133/2/2
f 133/2/2 132/2/2 134/2/2
f 132/2/2 95/2/2 135/2/2
f 134/2/2 132/2/2 135/2/2
f 95/1/2 101/1/2 135/1/2
f 101/2/2 109/2/2 136/2/2
f 135/1/2 101/1/2 136/1/2
f 109/1/2 110/1/2 137/1/2
f 137/1/2 110/1/2 138/1/2
f 133/1/2 134/1/2 139/1/2
f 122/1/2 133/1/2 139/1/2
f 139/1/2 134/1/2 140/1/2
f 134/2/2 135/2/2 141/2/2
f 140/1/2 134/1/2 141/1/2
f 135/2/2 136/2/2 141/2/2
f 141/2/2 136/2/2 142/2/2
f 142/2/2 136/2/2 143/2/2
f 136/2/2 109/2/2 144/2/2
f 143/2/2 136/2/2 144/2/2
f 109/1/2 137/1/2 144/1/2
f 139/2/2 140/2/2 145/2/2
f 141/1/2 142/1/2 146/1/2
f 145/2/2 140/2/2 146/2/2
f 140/1/2 141/1/2 146/1/2
f 146/1/2 142/1/2 147/1/2
f 147/1/2 142/1/2 148/1/2
f 117/1/2 121/1/2 149/1/2
f 121/2/2 122/2/2 150/2/2
f 149/1/2 121/1/2 150/1/2
f 122/1/2 139/1/2 151/1/2
f 150/2/2 122/2/2 151/2/2
f 151/1/2 139/1/2 152/1/2
f 138/1/2 110/1/2 153/1/2
f 137/2/2 138/2/2 153/2/2
f 110/1/2 105/1/2 154/1/2
f 153/1/2 110/1/2 154/1/2
f 105/2/2 111/2/2 154/2/2
f 111/1/2 112/1/2 155/1/2
f 154/2/2 111/2/2 155/2/2
f 155/1/2 112/1/2 156/1/2
f 117/1/2 149/1/2 157/1/2
f 151/2/2 152/2/2 157/2/2
f 150/2/2 151/2/2 157/2/2
f 149/2/2 150/2/2 157/2/2
f 157/2/2 152/2/2 158/2/2
f 158/2/2 152/2/2 159/2/2
f 152/1/2 139/1/2 160/1/2
f 159/2/2 152/2/2 160/2/2
f 145/1/2 146/1/2 161/1/2
f 146/1/2 147/1/2 161/1/2
f 161/1/2 147/1/2 162/1/2
f 162/1/2 147/1/2 163/1/2
f 163/1/2 147/1/2 164/1/2
f 137/2/2 153/2/2 165/2/2
f 153/2/2 154/2/2 165/2/2
f 155/2/2 156/2/2 165/2/2
f 154/2/2 155/2/2 165/2/2
f 156/1/2 112/1/2 166/1/2
f 165/2/2 156/2/2 166/2/2
f 25/1/2 117/1/2 167/1/2
f 117/1/2 157/1/2 167/1/2
f 157/1/2 158/1/2 167/1/2
f 167/1/2 158/1/2 168/1/2
f 167/2/2 168/2/2 169/2/2
f 169/2/2 168/2/2 170/2/2
f 145/1/2 161/1/2 171/1/2
f 161/2/2 162/2/2 172/2/2
f 171/1/2 161/1/2 172/1/2
f 164/1/2 147/1/2 173/1/2
f 163/2/2 164/2/2 173/2/2
f 147/2/2 148/2/2 174/2/2
f 173/1/2 147/1/2 174/1/2
f 160/1/2 139/1/2 175/1/2
f 159/1/2 160/1/2 175/1/2
f 139/2/2 145/2/2 176/2/2
f 175/1/2 139/1/2 176/1/2
f 145/1/2 171/1/2 177/1/2
f 176/2/2 145/2/2 177/2/2
f 177/1/2 171/1/2 178/1/2
f 171/2/2 172/2/2 179/2/2
f 178/1/2 171/1/2 179/1/2
f 172/2/2 162/2/2 180/2/2
f 179/2/2 172/2/2 180/2/2
f 162/1/2 163/1/2 180/1/2
f 180/1/2 163/1/2 181/1/2
f 181/1/2 163/1/2 182/1/2
f 182/1/2 163/1/2 183/1/2
f 183/1/2 163/1/2 184/1/2
f 163/2/2 173/2/2 185/2/2
f 184/1/2 163/1/2 185/1/2
f 173/2/2 174/2/2 185/2/2
f 174/2/2 148/2/2 186/2/2
f 185/2/2 174/2/2 186/2/2
f 148/1/2 142/1/2 187/1/2
f 186/2/2 148/2/2 187/2/2
f 187/1/2 142/1/2 188/1/2
f 188/1/2 142/1/2 189/1/2
f 142/2/2 143/2/2 190/2/2
f 189/1/2 142/1/2 190/1/2
f 143/1/2 144/1/2 191/1/2
f 190/2/2 143/2/2 191/2/2
f 144/1/2 137/1/2 192/1/2
f 191/1/2 144/1/2 192/1/2
f 177/2/2 178/2/2 193/2/2
f 176/2/2 177/2/2 193/2/2
f 175/2/2 176/2/2 193/2/2
f 159/1/2 175/1/2 193/1/2
f 193/2/2 178/2/2 194/2/2
f 185/1/2 186/1/2 195/1/2
f 187/2/2 188/2/2 195/2/2
f 186/2/2 187/2/2 195/2/2
f 184/1/2 185/1/2 195/1/2
f 188/1/2 189/1/2 196/1/2
f 195/2/2 188/2/2 196/2/2
f 190/2/2 191/2/2 197/2/2
f 191/2/2 192/2/2 197/2/2
f 189/2/2 190/2/2 197/2/2
f 192/1/2 137/1/2 198/1/2
f 197/2/2 192/2/2 198/2/2
f 137/2/2 165/2/2 199/2/2
f 198/1/2 137/1/2 199/1/2
f 165/1/2 166/1/2 200/1/2
f 199/2/2 165/2/2 200/2/2
f 178/1/2 179/1/2 201/1/2
f 180/1/2 181/1/2 201/1/2
f 179/1/2 180/1/2 201/1/2
f 201/1/2 181/1/2 202/1/2
f 195/1/2 196/1/2 203/1/2
f 184/1/2 195/1/2 203/1/2
f 203/1/2 196/1/2 204/1/2
f 158/2/2 159/2/2 205/2/2
f 168/1/2 158/1/2 205/1/2
f 193/1/2 194/1/2 206/1/2
f 205/2/2 159/2/2 206/2/2
f 159/1/2 193/1/2 206/1/2
f 197/1/2 198/1/2 207/1/2
f 189/2/2 197/2/2 207/2/2
f 199/1/2 200/1/2 207/1/2
f 198/1/2 199/1/2 207/1/2
f 207/1/2 200/1/2 208/1/2
f 206/1/2 194/1/2 209/1/2
f 194/2/2 178/2/2 209/2/2
f 205/1/2 206/1/2 209/1/2
f 178/1/2 201/1/2 210/1/2
f 209/2/2 178/2/2 210/2/2
f 202/1/2 181/1/2 211/1/2
f 181/2/2 182/2/2 212/2/2
f 211/1/2 181/1/2 212/1/2
f 182/1/2 183/1/2 213/1/2
f 212/2/2 182/2/2 213/2/2
f 183/2/2 184/2/2 214/2/2
f 213/1/2 183/1/2 214/1/2
f 204/1/2 196/1/2 215/1/2
f 207/2/2 208/2/2 215/2/2
f 189/2/2 207/2/2 215/2/2
f 196/1/2 189/1/2 215/1/2
f 215/2/2 208/2/2 216/2/2
f 209/1/2 210/1/2 217/1/2
f 205/1/2 209/1/2 217/1/2
f 217/1/2 210/1/2 218/1/2
f 202/1/2 211/1/2 219/1/2
f 219/1/2 211/1/2 220/1/2
f 213/2/2 214/2/2 221/2/2
f 220/1/2 211/1/2 221/1/2
f 212/2/2 213/2/2 221/2/2
f 211/2/2 212/2/2 221/2/2
f 214/2/2 184/2/2 222/2/2
f 221/2/2 214/2/2 222/2/2
f 184/1/2 203/1/2 223/1/2
f 222/2/2 184/2/2 223/2/2
f 203/2/2 204/2/2 224/2/2
f 223/1/2 203/1/2 224/1/2
f 222/2/2 223/2/2 225/2/2
f 223/2/2 224/2/2 225/2/2
f 225/2/2 224/2/2 226/2/2
f 224/2/2 204/2/2 227/2/2
f 226/2/2 224/2/2 227/2/2
f 215/1/2 216/1/2 228/1/2
f 227/2/2 204/2/2 228/2/2
f 204/1/2 215/1/2 228/1/2
f 210/1/2 201/1/2 229/1/2
f 218/1/2 210/1/2 229/1/2
f 201/2/2 202/2/2 230/2/2
f 229/1/2 201/1/2 230/1/2
f 208/1/2 200/1/2 231/1/2
f 200/1/2 166/1/2 232/1/2
f 231/1/2 200/1/2 232/1/2
f 205/1/2 217/1/2 233/1/2
f 217/2/2 218/2/2 234/2/2
f 233/1/2 217/1/2 234/1/2
f 218/1/2 229/1/2 235/1/2
f 234/2/2 218/2/2 235/2/2
f 235/1/2 229/1/2 236/1/2
f 229/2/2 230/2/2 237/2/2
f 236/1/2 229/1/2 237/1/2
f 230/2/2 202/2/2 238/2/2
f 237/2/2 230/2/2 238/2/2
f 202/1/2 219/1/2 239/1/2
f 238/2/2 202/2/2 239/2/2
f 219/2/2 220/2/2 240/2/2
f 239/1/2 219/1/2 240/1/2
f 220/1/2 221/1/2 241/1/2
f 240/2/2 220/2/2 241/2/2
f 221/1/2 222/1/2 241/1/2
f 241/1/2 222/1/2 242/1/2
f 226/2/2 227/2/2 243/2/2
f 227/1/2 228/1/2 243/1/2
f 228/1/2 216/1/2 244/1/2
f 243/1/2 228/1/2 244/1/2
f 208/1/2 231/1/2 245/1/2
f 231/2/2 232/2/2 246/2/2
f 245/1/2 231/1/2 246/1/2
f 246/2/2 232/2/2 247/2/2
f 232/1/2 166/1/2 248/1/2
f 247/2/2 232/2/2 248/2/2
f 233/2/2 234/2/2 249/2/2
f 234/2/2 235/2/2 249/2/2
f 235/2/2 236/2/2 249/2/2
f 236/1/2 237/1/2 250/1/2
f 249/2/2 236/2/2 250/2/2
f 237/1/2 238/1/2 250/1/2
f 239/2/2 240/2/2 251/2/2
f 250/1/2 238/1/2 251/1/2
f 238/2/2 239/2/2 251/2/2
f 240/2/2 241/2/2 251/2/2
f 241/2/2 242/2/2 251/2/2
f 242/1/2 222/1/2 252/1/2
f 251/2/2 242/2/2 252/2/2
f 226/2/2 243/2/2 253/2/2
f 243/2/2 244/2/2 253/2/2
f 225/1/2 226/1/2 253/1/2
f 244/1/2 216/1/2 254/1/2
f 253/2/2 244/2/2 254/2/2
f 208/1/2 245/1/2 255/1/2
f 245/2/2 246/2/2 255/2/2
f 246/2/2 247/2/2 255/2/2
f 247/1/2 248/1/2 256/1/2
f 255/2/2 247/2/2 256/2/2
f 169/1/2 170/1/2 257/1/2
f 170/2/2 168/2/2 257/2/2
f 168/1/2 205/1/2 258/1/2
f 257/2/2 168/2/2 258/2/2
f 205/1/2 233/1/2 258/1/2
f 249/1/2 250/1/2 259/1/2
f 252/1/2 222/1/2 259/1/2
f 251/1/2 252/1/2 259/1/2
f 250/1/2 251/1/2 259/1/2
f 222/2/2 225/2/2 259/2/2
f 225/1/2 253/1/2 260/1/2
f 259/2/2 225/2/2 260/2/2
f 253/1/2 254/1/2 260/1/2
f 254/1/2 216/1/2 261/1/2
f 260/1/2 254/1/2 261/1/2
f 216/2/2 208/2/2 261/2/2
f 208/1/2 255/1/2 262/1/2
f 261/2/2 208/2/2 262/2/2
f 255/1/2 256/1/2 262/1/2
f 257/1/2 258/1/2 263/1/2
f 169/1/2 257/1/2 263/1/2
f 258/1/2 233/1/2 264/1/2
f 263/1/2 258/1/2 264/1/2
f 233/2/2 249/2/2 264/2/2
f 249/1/2 259/1/2 265/1/2
f 264/2/2 249/2/2 265/2/2
f 260/1/2 261/1/2 265/1/2
f 259/1/2 260/1/2 265/1/2
f 261/1/2 262/1/2 265/1/2
f 166/1/2 112/1/2 266/1/2
f 265/1/2 262/1/2 266/1/2
f 248/1/2 166/1/2 266/1/2
f 262/1/2 256/1/2 266/1/2
f 256/1/2 248/1/2 266/1/2
f 112/1/2 38/1/2 266/1/2
f 269/1/3 268/1/3 267/1/3
f 270/1/3 268/1/3 269/1/3
f 271/1/3 269/1/3 267/1/3
f 272/2/3 270/2/3 269/2/3
f 272/1/3 269/1/3 271/1/3
f 273/1/3 268/1/3 270/1/3
f 273/2/3 270/2/3 272/2/3
f 274/1/3 268/1/3 273/1/3
f 277/1/3 276/1/3 275/1/3
f 278/1/3 276/1/3 277/1/3
f 279/2/3 278/2/3 277/2/3
f 280/2/3 279/2/3 277/2/3
f 281/2/3 279/2/3 280/2/3
f 284/1/3 283/1/3 282/1/3
f 285/1/3 283/1/3 284/1/3
f 286/2/3 285/2/3 284/2/3
f 287/2/3 285/2/3 286/2/3
f 290/1/3 289/1/3 288/1/3
f 291/1/3 289/1/3 290/1/3
f 294/1/3 293/1/3 292/1/3
f 295/1/3 293/1/3 294/1/3
f 296/2/3 295/2/3 294/2/3
f 297/2/3 295/2/3 296/2/3
f 298/1/4 299/1/4 300/1/4
f 300/1/4 299/1/4 301/1/4
f 300/2/4 301/2/4 302/2/4
f 300/2/4 302/2/4 303/2/4
f 303/2/4 302/2/4 304/2/4
f 305/1/4 306/1/4 307/1/4
f 307/1/4 306/1/4 308/1/4
f 309/1/4 310/1/4 311/1/4
f 311/1/4 310/1/4 312/1/4
f 311/2/4 312/2/4 313/2/4
f 313/2/4 312/2/4 314/2/4
f 315/1/4 316/1/4 317/1/4
f 317/1/4 316/1/4 318/1/4
f 317/2/4 318/2/4 319/2/4
f 319/2/4 318/2/4 320/2/4
f 321/1/4 322/1/4 323/1/4
f 323/1/4 322/1/4 324/1/4
f 327/1/5 326/1/5 325/1/5
f 328/1/5 326/1/5 327/1/5
f 329/1/5 327/1/5 325/1/5
f 330/2/5 328/2/5 327/2/5
f 330/1/5 327/1/5 329/1/5
f 331/2/5 328/2/5 330/2/5
f 332/1/5 329/1/5 325/1/5
f 335/1/5 333/1/5 332/1/5
f 335/2/5 334/2/5 333/2/5
f 336/2/5 334/2/5 335/2/5
f 337/1/5 336/1/5 335/1/5
f 338/1/5 336/1/5 337/1/5
f 339/1/5 332/1/5 325/1/5
f 339/1/5 335/1/5 332/1/5
f 339/1/5 337/1/5 335/1/5
f 340/2/5 338/2/5 337/2/5
f 340/1/5 337/1/5 339/1/5
f 341/2/5 338/2/5 340/2/5
f 342/1/5 339/1/5 325/1/5
f 345/1/5 343/1/5 342/1/5
f 345/2/5 344/2/5 343/2/5
f 346/2/5 344/2/5 345/2/5
f 347/1/5 345/1/5 342/1/5
f 347/1/5 346/1/5 345/1/5
f 348/1/5 346/1/5 347/1/5
f 349/1/5 342/1/5 325/1/5
f 349/1/5 347/1/5 342/1/5
f 350/2/5 348/2/5 347/2/5
f 350/1/5 347/1/5 349/1/5
f 351/2/5 348/2/5 350/2/5
f 352/1/5 349/1/5 325/1/5
f 355/1/5 353/1/5 352/1/5
f 355/2/5 354/2/5 353/2/5
f 356/2/5 354/2/5 355/2/5
f 357/1/5 352/1/5 325/1/5
f 357/1/5 355/1/5 352/1/5
f 357/1/5 356/1/5 355/1/5
f 358/1/5 356/1/5 357/1/5
f 361/1/5 360/1/5 359/1/5
f 362/1/5 360/1/5 361/1/5
f 367/1/5 364/1/5 363/1/5
f 367/1/5 365/1/5 364/1/5
f 368/1/5 365/1/5 367/1/5
f 369/2/5 366/2/5 365/2/5
f 369/1/5 365/1/5 368/1/5
f 370/2/5 366/2/5 369/2/5
f 374/1/5 372/1/5 371/1/5
f 375/2/5 373/2/5 372/2/5
f 375/1/5 372/1/5 374/1/5
f 376/2/5 373/2/5 375/2/5
f 380/1/5 378/1/5 377/1/5
f 381/2/5 379/2/5 378/2/5
f 381/1/5 378/1/5 380/1/5
f 382/2/5 379/2/5 381/2/5
f 383/1/6 384/1/6 385/1/6
f 385/1/6 384/1/6 386/1/6
f 387/1/6 388/1/6 389/1/6
f 389/1/6 388/1/6 390/1/6
f 387/1/6 389/1/6 391/1/6
f 389/2/6 390/2/6 391/2/6
f 391/2/6 390/2/6 392/2/6
f 387/1/6 391/1/6 393/1/6
f 391/1/6 392/1/6 393/1/6
f 393/1/6 392/1/6 394/1/6
