<?xml version="1.0" encoding="UTF-8" standalone="no"?>
<!-- Created with Inkscape (http://www.inkscape.org/) -->

<svg
   width="210mm"
   height="297mm"
   viewBox="0 0 210 297"
   version="1.1"
   id="svg1"
   inkscape:version="1.4.2 (f4327f4, 2025-05-13)"
   sodipodi:docname="graphics.svg"
   xmlns:inkscape="http://www.inkscape.org/namespaces/inkscape"
   xmlns:sodipodi="http://sodipodi.sourceforge.net/DTD/sodipodi-0.dtd"
   xmlns="http://www.w3.org/2000/svg"
   xmlns:svg="http://www.w3.org/2000/svg">
  <sodipodi:namedview
     id="namedview1"
     pagecolor="#ffffff"
     bordercolor="#000000"
     borderopacity="0.25"
     inkscape:showpageshadow="2"
     inkscape:pageopacity="0.0"
     inkscape:pagecheckerboard="0"
     inkscape:deskcolor="#d1d1d1"
     inkscape:document-units="mm"
     inkscape:zoom="2.9405047"
     inkscape:cx="-110.69528"
     inkscape:cy="36.898428"
     inkscape:window-width="3440"
     inkscape:window-height="1369"
     inkscape:window-x="-8"
     inkscape:window-y="-8"
     inkscape:window-maximized="1"
     inkscape:current-layer="layer1" />
  <defs
     id="defs1" />
  <g
     inkscape:label="Layer 1"
     inkscape:groupmode="layer"
     id="layer1">
    <path
       id="text1-7"
       style="font-size:13.9162px;text-align:start;writing-mode:lr-tb;direction:ltr;text-anchor:start;fill:#000000;stroke:#f9f9f9;stroke-width:1.15968"
       d="m -73.36042,0.579846 c -0.705087,0 -1.359635,0.111687 -1.96267,0.334346 -0.524822,0.193781 -0.986076,0.468322 -1.384419,0.823723 -0.32743,0.186394 -0.62384,0.412483 -0.88935,0.677994 -0.43604,0.426764 -0.77942,0.955599 -1.02991,1.586467 -0.25049,0.62159 -0.37569,1.331207 -0.37569,2.129069 0,1.605002 0.40831,2.843453 1.22473,3.715535 0.8257,0.872082 2.022078,1.307931 3.58997,1.307931 0.73292,0 1.378117,-0.07429 1.934765,-0.222726 0.556648,-0.148439 0.987822,-0.315195 1.293978,-0.500744 l -0.05788,-0.168982 c 0.312912,-0.106669 0.570699,-0.221714 0.773596,-0.344682 l -0.598413,-1.739429 c -0.120607,0.05566 -0.255154,0.115926 -0.403593,0.180868 -0.14844,0.06494 -0.320387,0.125203 -0.515214,0.180867 -0.194827,0.04639 -0.417168,0.08795 -0.66766,0.125057 -0.250491,0.03711 -0.53361,0.05581 -0.849043,0.05581 -0.500984,0 -0.927482,-0.07896 -1.280026,-0.236678 -0.352543,-0.166995 -0.640337,-0.389336 -0.862996,-0.66766 -0.213382,-0.278324 -0.371304,-0.607677 -0.473356,-0.988053 -0.09278,-0.389654 -0.13901,-0.807318 -0.13901,-1.252637 0,-0.556648 0.07429,-1.029898 0.222726,-1.419551 0.140358,-0.368442 0.322395,-0.670164 0.545703,-0.905888 0.05633,-0.02547 0.113518,-0.04858 0.172082,-0.06925 0.324712,-0.111329 0.654065,-0.166915 0.988054,-0.166915 0.500983,0 0.946182,0.05559 1.335835,0.166915 0.398931,0.11133 0.746985,0.245876 1.043864,0.403593 l 0.258382,-0.722953 c 0.163823,0.06439 0.316486,0.134462 0.457337,0.20929 l 0.625801,-1.753382 c -0.07422,-0.04639 -0.19474,-0.111323 -0.361735,-0.19482 -0.166994,-0.0835 -0.375826,-0.162458 -0.626318,-0.236678 -0.250491,-0.0835 -0.542443,-0.153108 -0.876432,-0.208773 -0.333989,-0.06494 -0.704902,-0.09767 -1.113111,-0.09767 z m 34.150367,0 c -0.70508,0 -1.35963,0.111687 -1.96267,0.334346 -0.52482,0.193781 -0.98607,0.468322 -1.38441,0.823723 -0.32743,0.186394 -0.62384,0.412483 -0.88935,0.677994 -0.43604,0.426764 -0.77942,0.955599 -1.02991,1.586467 -0.2505,0.62159 -0.37569,1.331207 -0.37569,2.129069 0,1.605002 0.40831,2.843453 1.22473,3.715535 0.8257,0.872082 2.02207,1.307931 3.58996,1.307931 0.73292,0 1.37812,-0.07429 1.93477,-0.222726 0.55665,-0.148439 0.98782,-0.315195 1.29398,-0.500744 l -0.0584,-0.168982 c 0.31291,-0.106669 0.57122,-0.221714 0.77412,-0.344682 l -0.59842,-1.739429 c -0.12061,0.05566 -0.25515,0.115926 -0.40359,0.180868 -0.14844,0.06494 -0.32039,0.125203 -0.51521,0.180867 -0.19483,0.04639 -0.41717,0.08795 -0.66766,0.125057 -0.2505,0.03711 -0.53361,0.05581 -0.84905,0.05581 -0.50098,0 -0.92748,-0.07896 -1.28002,-0.236678 -0.35255,-0.166995 -0.64034,-0.389336 -0.863,-0.66766 -0.21338,-0.278324 -0.3713,-0.607677 -0.47336,-0.988053 -0.0928,-0.389654 -0.13901,-0.807318 -0.13901,-1.252637 0,-0.556648 0.0743,-1.029898 0.22273,-1.419551 0.14036,-0.368442 0.3224,-0.670164 0.5457,-0.905888 0.0563,-0.02547 0.11352,-0.04858 0.17209,-0.06925 0.32471,-0.111329 0.65406,-0.166915 0.98805,-0.166915 0.50098,0 0.94618,0.05559 1.33583,0.166915 0.39894,0.11133 0.74699,0.245876 1.04387,0.403593 l 0.25838,-0.722953 c 0.16382,0.06439 0.31649,0.134462 0.45734,0.20929 l 0.6258,-1.753382 c -0.0742,-0.04639 -0.19474,-0.111323 -0.36174,-0.19482 -0.16699,-0.0835 -0.37582,-0.162458 -0.62631,-0.236678 -0.2505,-0.0835 -0.54245,-0.153108 -0.87644,-0.208773 -0.33399,-0.06494 -0.7049,-0.09767 -1.11311,-0.09767 z m -29.641598,0.222725 v 0.513664 h -0.715718 v 9.643856 h 2.170927 v -0.513664 h 0.715718 V 6.868868 h 2.930571 v 4.091223 h 2.170927 v -0.513664 h 0.715201 V 0.802571 h -2.170927 v 0.513664 h -0.715201 v 3.174483 h -2.930571 V 0.802571 Z m 10.214364,0 v 0.513664 h -0.715719 v 9.643856 h 2.170927 v -0.513664 h 0.715719 V 0.802571 Z m 4.397664,0 v 0.513664 h -0.715718 v 9.643856 h 2.143021 v -0.513664 h 0.715719 V 5.510294 c 0.554433,0.696808 1.085614,1.423327 1.594218,2.179712 0.723642,1.076186 1.396374,2.166066 2.017964,3.270085 h 1.823145 v -0.513664 h 0.715721 V 0.802571 h -2.156977 v 0.513664 h -0.715718 v 4.127397 c -0.116324,-0.167441 -0.235032,-0.336782 -0.356051,-0.50798 -0.380376,-0.54737 -0.765315,-1.07153 -1.154968,-1.572514 -0.380376,-0.51026 -0.755965,-0.987669 -1.127063,-1.432987 -0.371099,-0.445318 -0.709802,-0.821423 -1.015959,-1.12758 z m 22.79447,0 c -0.0826,0.169992 -0.16454,0.341269 -0.24598,0.513664 h -0.46922 c -0.32471,0.667977 -0.64055,1.354735 -0.94671,2.059822 -0.29688,0.69581 -0.60286,1.433478 -0.91829,2.212785 -0.30616,0.779307 -0.62148,1.609445 -0.9462,2.490804 -0.32471,0.88136 -0.66809,1.841368 -1.02991,2.880445 h 2.25465 c 0.0516,-0.168823 0.10542,-0.3401 0.16174,-0.513664 h 0.55346 c 0.10205,-0.333989 0.21374,-0.676851 0.33434,-1.029395 0.0668,-0.18135 0.13202,-0.362802 0.19637,-0.544152 h 3.221 l 0.36173,1.057816 c 0.12989,0.352544 0.24573,0.695406 0.34778,1.029395 h 2.32441 c -0.0604,-0.17339 -0.12049,-0.344666 -0.17983,-0.513664 h 0.89503 c -0.36182,-1.039076 -0.7052,-1.999085 -1.02991,-2.880444 -0.32471,-0.88136 -0.64471,-1.711497 -0.96015,-2.490804 -0.30615,-0.779308 -0.61213,-1.516975 -0.91829,-2.212785 -0.30615,-0.705088 -0.61681,-1.391845 -0.93224,-2.059823 z m 7.16701,0 v 0.513664 h -0.71572 v 9.643856 h 2.14302 v -0.513664 h 0.71572 V 5.510294 c 0.55443,0.696808 1.08613,1.423327 1.59473,2.179712 0.72365,1.076186 1.39586,2.166066 2.01745,3.270085 h 1.82315 v -0.513664 h 0.71572 V 0.802571 h -2.15698 v 0.513664 h -0.71572 v 4.127397 c -0.11632,-0.167441 -0.23503,-0.336782 -0.35605,-0.50798 -0.38037,-0.54737 -0.76531,-1.07153 -1.15497,-1.572514 -0.38037,-0.51026 -0.75596,-0.987669 -1.12706,-1.432987 -0.3711,-0.445318 -0.7098,-0.821423 -1.01596,-1.12758 z m 13.38729,0 c -0.0826,0.169992 -0.16454,0.341269 -0.24598,0.513664 h -0.46973 c -0.32472,0.667977 -0.64004,1.354735 -0.9462,2.059822 -0.29688,0.69581 -0.60286,1.433478 -0.91829,2.212785 -0.30616,0.779307 -0.62148,1.609445 -0.9462,2.490804 -0.32471,0.88136 -0.66809,1.841368 -1.02991,2.880445 h 2.25413 c 0.0516,-0.168823 0.10594,-0.3401 0.16226,-0.513664 h 0.55346 c 0.10205,-0.333989 0.21322,-0.676851 0.33383,-1.029395 0.0668,-0.18135 0.13253,-0.362802 0.19688,-0.544152 h 3.2209998 l 0.36173,1.057816 c 0.12989,0.352544 0.24573,0.695406 0.34778,1.029395 h 2.32389 c -0.0604,-0.17339 -0.11997,-0.344666 -0.17931,-0.513664 h 0.89503 c -0.36182,-1.039076 -0.7052,-1.999085 -1.02991,-2.880444 -0.32471,-0.88136 -0.64471,-1.711497 -0.96015,-2.490804 -0.30615,-0.779308 -0.61213,-1.516975 -0.91829,-2.212785 -0.30615,-0.705088 -0.61681,-1.391845 -0.93224,-2.059823 z m -20.01531,3.382739 c 0.0822,0.213896 0.17433,0.454283 0.27647,0.721403 0.12988,0.315434 0.26443,0.663488 0.40359,1.043864 0.081,0.221449 0.16337,0.449136 0.24753,0.683163 h -1.84226 c 0.14844,-0.417486 0.29233,-0.81645 0.43149,-1.196826 0.14844,-0.380377 0.28299,-0.72843 0.4036,-1.043864 0.0272,-0.07121 0.0538,-0.140316 0.0796,-0.20774 z m 20.5543,0 c 0.0822,0.213896 0.17433,0.454283 0.27647,0.721403 0.1298798,0.315434 0.2644298,0.663488 0.4035898,1.043864 0.081,0.221449 0.16337,0.449136 0.24753,0.683163 h -1.8422598 c 0.14844,-0.417486 0.29233,-0.81645 0.43149,-1.196826 0.14844,-0.380377 0.28299,-0.72843 0.4036,-1.043864 0.0272,-0.07121 0.0538,-0.140316 0.0796,-0.20774 z"
       inkscape:export-filename="logo_game.png"
       inkscape:export-xdpi="344.85565"
       inkscape:export-ydpi="344.85565" />
    <text
       xml:space="preserve"
       style="font-size:13.9162px;text-align:start;writing-mode:lr-tb;direction:ltr;text-anchor:start;fill:#000000;stroke-width:1.15968"
       x="-79.748932"
       y="11.010757"
       id="text1"><tspan
         sodipodi:role="line"
         id="tspan1"
         style="font-style:normal;font-variant:normal;font-weight:bold;font-stretch:normal;font-family:Ubuntu;-inkscape-font-specification:'Ubuntu Bold';stroke-width:1.15968"
         x="-79.748932"
         y="11.010757">CHINCANA</tspan></text>
    <text
       xml:space="preserve"
       style="font-size:13.9162px;text-align:start;writing-mode:lr-tb;direction:ltr;text-anchor:start;fill:#d45500;stroke-width:1.15968"
       x="-79.033401"
       y="10.497181"
       id="text1-8"><tspan
         sodipodi:role="line"
         id="tspan1-2"
         style="font-style:normal;font-variant:normal;font-weight:bold;font-stretch:normal;font-family:Ubuntu;-inkscape-font-specification:'Ubuntu Bold';fill:#d45500;stroke-width:1.15968"
         x="-79.033401"
         y="10.497181">CHINCANA</tspan></text>
  </g>
</svg>
